<mxfile host="app.diagrams.net" modified="2022-08-30T08:27:50.114Z" agent="5.0 (X11; Linux x86_64) AppleWebKit/537.36 (KHTML, like Gecko) Chrome/104.0.0.0 Safari/537.36" etag="v8nFp6Eiz_R3UlGScvH-" version="20.1.1" type="github">
  <diagram id="1C9WQ3AwD_l2FGvk-Ljh" name="Page-1">
    <mxGraphModel dx="1247" dy="686" grid="1" gridSize="10" guides="1" tooltips="1" connect="1" arrows="1" fold="1" page="1" pageScale="1" pageWidth="850" pageHeight="1100" math="0" shadow="0">
      <root>
        <mxCell id="0" />
        <mxCell id="1" parent="0" />
        <mxCell id="6iLja8leymD-v6mHz2or-1" value="" style="rounded=1;whiteSpace=wrap;html=1;" vertex="1" parent="1">
          <mxGeometry x="79" y="323" width="670" height="60" as="geometry" />
        </mxCell>
        <mxCell id="6iLja8leymD-v6mHz2or-3" value="" style="rounded=1;whiteSpace=wrap;html=1;" vertex="1" parent="1">
          <mxGeometry x="80" y="250" width="670" height="60" as="geometry" />
        </mxCell>
        <mxCell id="6iLja8leymD-v6mHz2or-2" value="" style="shape=image;html=1;verticalAlign=top;verticalLabelPosition=bottom;labelBackgroundColor=#ffffff;imageAspect=0;aspect=fixed;image=https://cdn2.iconfinder.com/data/icons/vivid/48/infinity-128.png;clipPath=inset(28.91% 10.94% 29.69% 10.94%);" vertex="1" parent="1">
          <mxGeometry x="270" y="257" width="86.79" height="46" as="geometry" />
        </mxCell>
        <mxCell id="6iLja8leymD-v6mHz2or-4" value="&lt;font style=&quot;font-size: 26px;&quot;&gt;&lt;b style=&quot;&quot;&gt;DevOps-1&lt;/b&gt;&lt;/font&gt;" style="text;html=1;align=center;verticalAlign=middle;resizable=0;points=[];autosize=1;strokeColor=none;fillColor=none;" vertex="1" parent="1">
          <mxGeometry x="380" y="260" width="140" height="40" as="geometry" />
        </mxCell>
        <mxCell id="6iLja8leymD-v6mHz2or-5" value="" style="shape=image;imageAspect=0;aspect=fixed;verticalLabelPosition=bottom;verticalAlign=top;fontFamily=Helvetica;fontSize=26;image=https://www.gstatic.com/devrel-devsite/prod/v6bd99c7d8fa6220aea6020b29137b212e2eacdba13242535487f52ab3557b0cb/cloud/images/social-icon-google-cloud-1200-630.png;" vertex="1" parent="1">
          <mxGeometry x="85" y="318.02" width="140" height="73.5" as="geometry" />
        </mxCell>
        <mxCell id="6iLja8leymD-v6mHz2or-6" value="" style="shape=image;imageAspect=0;aspect=fixed;verticalLabelPosition=bottom;verticalAlign=top;fontFamily=Helvetica;fontSize=26;image=https://upload.wikimedia.org/wikipedia/commons/thumb/9/93/Amazon_Web_Services_Logo.svg/1280px-Amazon_Web_Services_Logo.svg.png;" vertex="1" parent="1">
          <mxGeometry x="224" y="328.53" width="87.04" height="52.06" as="geometry" />
        </mxCell>
        <mxCell id="6iLja8leymD-v6mHz2or-7" value="" style="shape=image;imageAspect=0;aspect=fixed;verticalLabelPosition=bottom;verticalAlign=top;fontFamily=Helvetica;fontSize=26;image=https://www.kindpng.com/picc/m/299-2994956_azure-logo-microsoft-azure-logo-svg-hd-png.png;" vertex="1" parent="1">
          <mxGeometry x="356.79" y="329.02" width="58" height="47.96" as="geometry" />
        </mxCell>
        <mxCell id="6iLja8leymD-v6mHz2or-8" value="" style="shape=image;imageAspect=0;aspect=fixed;verticalLabelPosition=bottom;verticalAlign=top;fontFamily=Helvetica;fontSize=26;image=https://www.ixreach.com/wp-content/uploads/oracle-cloud-logo.png;" vertex="1" parent="1">
          <mxGeometry x="453" y="324" width="100" height="52.69" as="geometry" />
        </mxCell>
        <mxCell id="6iLja8leymD-v6mHz2or-9" value="" style="shape=image;imageAspect=0;aspect=fixed;verticalLabelPosition=bottom;verticalAlign=top;fontFamily=Helvetica;fontSize=26;image=https://object-storage-ca-ymq-1.vexxhost.net/swift/v1/6e4619c416ff4bd19e1c087f27a43eea/www-images-prod/openstack-logo/OpenStack-Logo-Mark.png;" vertex="1" parent="1">
          <mxGeometry x="590" y="327.97999999999996" width="60" height="51.58" as="geometry" />
        </mxCell>
        <mxCell id="6iLja8leymD-v6mHz2or-10" value="" style="shape=image;imageAspect=0;aspect=fixed;verticalLabelPosition=bottom;verticalAlign=top;fontFamily=Helvetica;fontSize=26;image=data:image/png,iVBORw0KGgoAAAANSUhEUgAAAOEAAADhCAMAAAAJbSJIAAABLFBMVEX///8Ap10AAABTZldWYldWaloArWAAql5VZFcjmFxUZVdSZVYAp1sAq14Ao1MApVdFW0oAoloAhUoAnFdLX0/v7+/f39/T09P39/cAf0dCWEddXV2/v7+5ubnp6ekAjE5KW04oMSo+TUE2Qzlubm6goKAmJiZ/f3+KiooVFRUATSsACwYAQSQzPzYAMBsAVjAAbDylrKcAGw8Ak1IAXjQ5Tz4AdkI5OTlKSkqbm5uIkoq2u7cAKRdEVEgXHBghKSN0gHY3eFM+cFIAFAsAHxFMrnqHwaHi7ee72Mhkc2dISEiCgoIvLy+CjYSOoZaOuqBwr4teqX9JoHEvo2bL3NO02sSSxqkrildpvY7W5dxEZ1E1glYARgtft4ahyLNVmXNmkHczXEMjXTwrQC+q/UUfAAAO6ElEQVR4nN2daUPbSBKGfUrGNjbGN7ExOBDMEXMYyJBwJIHMbJLJzOxmd9gNu7NH/v9/WEmto9V3tySr7fdrgtFDq6q6q6vKmUw8ag93cnubMX2Yfupcvco52umk/ShJqDvZzwV61k37eWLWYCeHaokY28NnGJ6jH5aCcXP3ExnP0atB2s8XUb5nWU7G7mceHdCLYdpPqiSCZ1kiRqpnYWg37YcWF9uzLDxjd/JCDc/RVS/t5+eou7fPp2Broi9jbyjjWViM7bRRSGqf/hAPnqM93RgFgro0o0aHq/BxIT5pc7j6ORE8jRjb98kRanK4+nhzmCTjD+n7nC+V/MsECe9/SRswc9rKF7duE+I7GK3+mjZgpruWz+eLzxPAezhpGGY9fcLeRt5GrNzFzHc0MsxsNlv/LW3ATKZcyTuMNzHindnLl7VV/3PafJnM61beVVwe52jdxbNU/UvafJnMG5+wuBXD7ubwpBnw6UHYWcv7iuxx4OUDhCtp81muBiLMF1sRPM7heRPhswi/ps1n6WMlDzOOVZevbxhZTNVG2ngZ2NUAVbYV+AjL5xJqcOR/gxBagUPS40z7JmH5gHQghF2NiygVOGjLB1RLf+udyWyghHnxreq0n6Uunz6Ebys4opjHOZ6xlk8fQtTVuIhljse5vsxy+SzCn9LGyxBcje9xGIdjgeUDhP9IG8/SJsEQXVE8jtjyAcK/po1nq0UyRLrHORiJ4tmEf0qbztZHKiG+VX3wD0aLRHhKMUSACB+OpZZPI8IBFvPDjGOAdya5fIDwb2nT2WK4Glfb9sHIlMbThpDharxlXFNYPkf139OGc0Tc1YRUUMKzCX9MG84R09UAwoYqoQbJtoybNGUTrqi9pNn639OGc7TJJSw9LjZhhk/4bsEJv/BcTfm9ImH1Q9psQHxX01pVJNQh2ZYRcTVlRWdababNBtTj7moKTTXCrCaEmSLPEJXDRS1tNFdcV6McLnQh5Loa5XChCyHX1SiHi5oGKWFbfFfTUiXUIdlma4vratQA9SEkJ01hwpkioQ7pRFu0pGlAqBgutCHkuprS04ITcl2NarjQI9lmi5U0tVX+prb31iQVlRFwNcWqGuEfaZN54rsatb23PoT4VTBKqBYuanqkE21d8AjV9t4aEfJcjWK40IiQ52oU996apIRt8VyNYrioapJsywjczxSUCOuaJNss9Xj3M2rhQpd0oi2eqymsLDohL5OhFi50SZja4lwFW+FCxRB1IuS5GrVwoUX9pae37EVUCxda1F/62mWvYkkps69Lsg2ou8HypyoXwdWaPhHf0WaZ4VALI1lDrNY+6JLECPSFboyymf1q7WuEqrZuYjMM3lDfVLlUjcUXIUXT3snl9pNi7LYob6pMuKjWGlFSULugDOtVQi2avY8UROGLYIsvSgKqG/TuPkuoZfo1OWwUxJJR1Vo9SnKmF54LsJdMtBkQjVEsVWPWfo/yUEOsoDWZcRvEsCGS2TfNxyi/t0MaOpKQyyHs4fipGtNYP8t9UredPXLZdUIu5xRD5IYLYzaN8l7hL2igRFzOFWqLnL230TzwnkelS32TM5ojdpcz/Dm3jS4iK7NvZs/h55E2nQmbz9ZVrHzOHJ5bZBXpF8GmeYI8jtwyDsS6yWJzOUN/ztBNUSRcmEb/LMrjtIWnUsXjcobw3/MljEhJ1RijKfFxnglazq4on/OhkV3OEHlf7soBIzFcGM0j6uOILGNXdjBVNJdDcNiHWz4iIVwYYQeD/cV5T9NTmd0UxeUQP3DsIWLhAncwmNgjB1khkCV1l1Mgft62h1gJEVoORmC+DWu8SU8RMILLOW0Ru0dv3V1qqQnzja75TzJtstKJ7Q3l9vh/KlrjoFUkd1aCsAGFC5aDCdQ3TFaFaXtNtT2+r3pr11mjTVZwwoYfLozGscBjHFs7HWZ1YntDrT3+oale43FBnXNyly964ULAwViazpwuaB6hwlyVA+sQqpzEczqEWsQ9lBU2nFSN5WBEhktduq1SrJRwGyQTJJfx0ohSEejeQJEdwLhohQshB5M7bnihk9XO7d2VyCzjofNqqFfmujdQRXIL8HZJzMFcj4I2ffSvPclNMMK80wEopKlt21F6ANreX3VM/Px95g7G0yXcyxcmHNj//qKL/La88LCKc/Cnq/9LmdAbq5Qvbgn+UTEdNEJzFmCfsOkdIiYYodiwinX3o6P0xPnNiMWK0pQz+AVFCa+C/7bvLGP4zpI75eg6MO4I+Vj4slshUp1gzbR+S343/Pz2MqK1ZhTzd3UcfHaUos5ulLFKyAsKPwx+yrWWESvcZc0c6UOfHaV8HDYNyWB8hr6g4GGcBPgV6QcmXTwrS1vGsxn84ZEmioTL9iUGgOEvqE/YpUwRvStihJRlPMrCH17NRgDMfEH+roK7/6MmZVJN7Q/GKfd2i8SIG8dJ+MOjVXigBW5s63d1v06dxFP9N/Mnn5MQ0TMc+vpHa03FrX/MBaS8oI7MS/bP8pdx2kA/PVrFYxsfHMUJ/tQXVIgQyefhy3hO8M/R6uPL2M1ascwI/vfooD2UsM8jzO0Tl3EM/pH0/kcce0OspaUG//Ms57rGXOcSWsuYxxmdsSrXTdLHR+ymItbSUoL/lPmCAsKRAGFu/4ZojQeUCBQJkNIhRAr+h32BgSDmTIQwh98D5e2aVvIov6jlgJSyfezkf8x7QYGaYoS5Q3wZKVW7Uc5Ojqi1tKHgP51xX1A5QsIyUgrNIs8ToZbtw8H/UnhijTghtowV8oVl5EYcetm+H/wFX1BHDXFCaxlD7w/l0jlyQ1yHXoUJgv+16AsqTxi+sqQRRm69ZZXtW8Ff/AUFkiMMbkmodWbRpzEyy/YLUgtoyZQc3X/k/ypK8UcMldXMsn3pjmBD7gsYLpsFn5BcwBNDdTyzbF96gIRBuOOn6rpprBQ4vyqGsT7Msn3pjmDjQRzw2DTNgJDyusTRLcZ6S6W7EgyRWwAg+xxhPpZ8QnLddRy9xcwJbrLzhgxypQYucNKFCYnVLbUPMVRHsV2NLKHITUfOz8WYTwEhadNWi6WjkTmAQLaJzTjg0+WCXMzqu4AQf0mrMTX4Mye4yTaxGSLXxUG2ECLcwgjrjbgmicQZLgyB+6rLYBcBEX7DbgjiMEEg1lgl2SY2PuEDnClYfV92fxHmteMxQSCWqym/lyM0eYTHoVTF6jcKYVwmCMRyNbJNbLyyhn54n7tKKTKLzwQdMWedSDaxsROmUzQVswqZA3yVHHe7LZ40DSQZLszHMR3wHD+Jlf3fE7i0apwmCPSGsYiSTWzmeon2bUuHhPu4RgknjNcEXZ3SESXDxaq1DSOnW4+wCwlLTXzTFrMJeqKvouTp4sk+K5Du6C+JR+ngeOhZQ+wmyEWUOV2YzW/eEyMXAw/kXEH9t3GYMAET9EXufsrLnC7Mp4LvOMJZc0q+Plv7qVNwg3GlkU3IBH3R+oJFx9NBCwgeOXA4fVqyx86jTS78P2RCJuirQ0YUnDe0+hgsoLuMzylBECK0a/G7Ny2ws4hxIyqFKJSMWkUWECA6DocQBANCgPR5w94dJmiCAeIaAVFk3pDxWCrjP5kvWg6HfudvmV3V/cWDm6138xn21iakh/nhwmwcEWsQ7B9mvgBBLrT3+j9zmirZLmEPyT1dGM7N9jYRkX2ATmW08mCMPSl7PJ29gI5uywRGDuH8Z6HY5T4YIjNcGFBpAqEEgU04/6lLoOsKNSnG6cLMhhJP+PpzCOc8R6PjfSc5UvJCDxfGOnIPgxXLcAjnO/3sc/CgYa9BCxdmFs+r3elL2KM/KCVcGCPSRRrSicomnOuMvs499UGJqRrTpCVGtyQI5znvtNcKn3cOofxbBSc0RtR7wv9KEM71a8w+ol1eUK8l6kxNes5w2ngqCRJW5zzu9JcWWlvqVxGg4cKYUa9BrW22KGG9MeeRRG9aWPmsF97CPc+MBbQvXKD7MiZh7eu8p2bZvQIoohv7Q+HCmFFveZ1ckyBhLYVvTnJ65xBEEMGhVI1p0HPa4ErQfCzwCedtgkDOVTCaCHRif3C6MGbUS+x7N9ckQjh3EwQC9zMootNC0KpyF/DAuxI0R1zC5LMVZHmtegiiHfvB6cJo0u/ooWzojEeYhgk62qS16rXAcxr0O5fQlSCHMB0TBPIyGBjiVmnFZC1gOBvKJkzJBIGCVj0UcfzEWEA0G9pkEaZlgkDBVTCG+D96DQlWX88iTM0EgaCrYPE2Njwb2ijTCKtpf3dCqItVEBHPhlY/vKqQCVM1QSD4KlgIEe9Rsq+Tep9aJMJ0TRAoVOAmgHhCSmfbzQM7FzjhPHL2XIWrTngtXqRLa5cwM/leDBOmboJAaNUJE/GIUsAPGkCGLqJLqIEJOsJa9RiI5EvrrD+XvXsHEc7/LEgTdi9DQzyjF7h7mfr2y5ZHmHIUhIX3z5ARDxgtJsF90rMNhzDNjSgmQv9MS+YNdRR0D+x9LxZWdDFBIEKBW7GC5n0fOF2IULvg7vfCTBsTdEQscEMQj3lfuw43RA52fk0Nhixi/0wFLv9hXVrjhPqJ3KoXIDLKKgJCrV5LVJRWPW+0C6usIiDU5WseiaJ9mRdAJG/TMEKdfCcu6pd53ZJrC0mEc71ukRa1Va9EGHawkITUrmDxr9bRnJDaqideZqrPF1kSRW3VEy8z1WkbStKEtojCXQl6nHUZekuxRNEmtsSqmOMT5QsvBLsStEjH8ERGFCqk1SQdw1VBtZBWr7MgQz0SokAhrQ4ZUUG1Cd++XnrHczULYYKeNm8wRF4T26KYoKdNbAvOIUy6kSB+4SNPmG16C2SCvrroKrK+a26hTNDXAEGkh4tke3kSFIJIbdNbPBP0NQzZIq2rexFN0Feo8ZIcEJNsp5uHdqGzFDFcLKwJ+noNIZZwwgU2QV/QkFo8IC60CfoKTsTY+WnBTdCXf1xEqn8W3wR9eZ264YC4DCboyTsuhgLicpigp17JQYQTistigp7AiTgIiEtkgp42nR7oimeCzeUxQV+di+D8tAAZURXZx0UnXCz6RpQuC9EOF0togr4GG6Unc5miIK7hxbta1LnMmmvwfp49nzz9Hx34ujbcjyFZAAAAAElFTkSuQmCC;" vertex="1" parent="1">
          <mxGeometry x="690" y="329.56" width="50" height="50" as="geometry" />
        </mxCell>
      </root>
    </mxGraphModel>
  </diagram>
</mxfile>
